<svg width="224" height="56" viewBox="0 0 224 56" fill="none" xmlns="http://www.w3.org/2000/svg">
<g clip-path="url(#clip0_61_8)">
<path d="M38.7458 42.0042L41.9333 38.8167L30.6708 27.4833V13.2458H26.4208V29.1833L38.7458 42.0042ZM28.3333 56.6667C24.4611 56.6667 20.8014 55.9229 17.3542 54.4354C13.9069 52.9479 10.8965 50.9174 8.32292 48.3438C5.74931 45.7701 3.71875 42.7597 2.23125 39.3125C0.74375 35.8653 0 32.2056 0 28.3333C0 24.4611 0.74375 20.8014 2.23125 17.3542C3.71875 13.9069 5.74931 10.8965 8.32292 8.32292C10.8965 5.74931 13.9069 3.71875 17.3542 2.23125C20.8014 0.74375 24.4611 0 28.3333 0C32.2056 0 35.8653 0.74375 39.3125 2.23125C42.7597 3.71875 45.7701 5.74931 48.3438 8.32292C50.9174 10.8965 52.9479 13.9069 54.4354 17.3542C55.9229 20.8014 56.6667 24.4611 56.6667 28.3333C56.6667 32.2056 55.9229 35.8653 54.4354 39.3125C52.9479 42.7597 50.9174 45.7701 48.3438 48.3438C45.7701 50.9174 42.7597 52.9479 39.3125 54.4354C35.8653 55.9229 32.2056 56.6667 28.3333 56.6667ZM28.3333 52.4167C34.9444 52.4167 40.6111 50.0556 45.3333 45.3333C50.0556 40.6111 52.4167 34.9444 52.4167 28.3333C52.4167 21.7222 50.0556 16.0556 45.3333 11.3333C40.6111 6.61111 34.9444 4.25 28.3333 4.25C21.7222 4.25 16.0556 6.61111 11.3333 11.3333C6.61111 16.0556 4.25 21.7222 4.25 28.3333C4.25 34.9444 6.61111 40.6111 11.3333 45.3333C16.0556 50.0556 21.7222 52.4167 28.3333 52.4167Z" fill="white"/>
</g>
<path d="M61.3292 54.2917V47.6333H70.325L62.8167 21.9917C61.3056 21.2833 60.125 20.3271 59.275 19.1229C58.425 17.9187 58 16.325 58 14.3417C58 12.1222 58.8146 10.1979 60.4438 8.56875C62.0729 6.93958 63.9972 6.125 66.2167 6.125C68.2944 6.125 70.0181 6.67986 71.3875 7.78958C72.7569 8.89931 73.6778 10.375 74.15 12.2167H84.4917V8.0375C84.4917 7.47083 84.7042 6.975 85.1292 6.55C85.5542 6.125 86.05 5.9125 86.6167 5.9125C87.1361 5.9125 87.5729 6.11319 87.9271 6.51458C88.2812 6.91597 88.4583 7.37639 88.4583 7.89583L93.7708 2.79583C94.1486 2.41806 94.6326 2.17014 95.2229 2.05208C95.8132 1.93403 96.4153 2.01667 97.0292 2.3L108.221 7.68333C108.646 7.91944 108.941 8.25 109.106 8.675C109.272 9.1 109.236 9.54861 109 10.0208C108.764 10.4931 108.422 10.7764 107.973 10.8708C107.524 10.9653 107.087 10.8944 106.662 10.6583L95.6833 5.34583L88.7417 12.3583V16.0417L95.6833 23.3375L106.662 17.9542C107.135 17.7181 107.583 17.659 108.008 17.7771C108.433 17.8951 108.764 18.1903 109 18.6625C109.236 19.1347 109.272 19.6069 109.106 20.0792C108.941 20.5514 108.622 20.9056 108.15 21.1417L97.3125 26.2417C96.6514 26.5722 96.0139 26.7257 95.4 26.7021C94.7861 26.6785 94.2431 26.4306 93.7708 25.9583L88.4583 20.8583C88.4583 21.5194 88.2812 22.0153 87.9271 22.3458C87.5729 22.6764 87.1361 22.8417 86.6167 22.8417C86.05 22.8417 85.5542 22.6292 85.1292 22.2042C84.7042 21.7792 84.4917 21.2833 84.4917 20.7167V16.4667H74.0083C74.0083 17.0333 73.8549 17.6118 73.5479 18.2021C73.241 18.7924 72.875 19.2764 72.45 19.6542L86.9708 47.6333H98.1625V54.2917H61.3292ZM66.2167 18.3083C67.35 18.3083 68.2944 17.9306 69.05 17.175C69.8056 16.4194 70.1833 15.475 70.1833 14.3417C70.1833 13.2083 69.8056 12.2639 69.05 11.5083C68.2944 10.7528 67.35 10.375 66.2167 10.375C65.0833 10.375 64.1389 10.7528 63.3833 11.5083C62.6278 12.2639 62.25 13.2083 62.25 14.3417C62.25 15.475 62.6278 16.4194 63.3833 17.175C64.1389 17.9306 65.0833 18.3083 66.2167 18.3083ZM75 47.6333H82.225L68.8375 21.6375C68.6958 21.7319 68.4597 21.8264 68.1292 21.9208C67.7986 22.0153 67.5389 22.0861 67.35 22.1333L75 47.6333Z" fill="white"/>
<path d="M153.809 18.8091H157.627V14.9909H153.809V18.8091ZM153.809 29.6909H157.627V25.8727H153.809V29.6909ZM153.809 40.5091H157.627V36.6909H153.809V40.5091ZM150.245 50.8182V47H164.182V8.81818H139.045V15.9455L135.227 13.2727V5H168V50.8182H150.245ZM112 50.8182V26L129.245 13.6545L146.427 26V50.8182H132.618V38.0273H125.873V50.8182H112ZM115.818 47H122.055V34.2091H136.436V47H142.609V27.9727L129.245 18.3636L115.818 27.9727V47ZM136.436 47V34.2091H122.055V47V34.2091H129.245H136.436V47Z" fill="white"/>
<path d="M190.793 56C190 56 189.335 55.7317 188.798 55.195C188.262 54.6583 187.993 53.9933 187.993 53.2V42.56L178.753 47.88C178.1 48.2533 177.4 48.335 176.653 48.125C175.907 47.915 175.347 47.4833 174.973 46.83L169.373 37.17C169 36.5167 168.907 35.805 169.093 35.035C169.28 34.265 169.7 33.6933 170.353 33.32L179.593 28L170.353 22.68C169.7 22.3067 169.28 21.735 169.093 20.965C168.907 20.195 169 19.4833 169.373 18.83L174.973 9.17C175.347 8.51667 175.907 8.085 176.653 7.875C177.4 7.665 178.1 7.74667 178.753 8.12L187.993 13.44V2.8C187.993 2.00667 188.262 1.34167 188.798 0.805C189.335 0.268333 190 0 190.793 0H201.993C202.787 0 203.452 0.268333 203.988 0.805C204.525 1.34167 204.793 2.00667 204.793 2.8V13.44L214.033 8.12C214.687 7.74667 215.387 7.665 216.133 7.875C216.88 8.085 217.44 8.51667 217.813 9.17L223.413 18.83C223.787 19.4833 223.88 20.195 223.693 20.965C223.507 21.735 223.087 22.3067 222.433 22.68L213.193 28L222.433 33.32C223.087 33.6933 223.507 34.265 223.693 35.035C223.88 35.805 223.787 36.5167 223.413 37.17L217.813 46.83C217.44 47.4833 216.88 47.915 216.133 48.125C215.387 48.335 214.687 48.2533 214.033 47.88L204.793 42.56V53.2C204.793 53.9933 204.525 54.6583 203.988 55.195C203.452 55.7317 202.787 56 201.993 56H190.793ZM192.193 51.8H200.593V37.38C200.593 36.9133 200.792 36.5633 201.188 36.33C201.585 36.0967 201.993 36.0967 202.413 36.33L214.873 43.54L219.073 36.26L206.543 29.05C206.123 28.8167 205.913 28.455 205.913 27.965C205.913 27.475 206.123 27.1133 206.543 26.88L219.073 19.67L214.873 12.46L202.413 19.67C201.993 19.9033 201.585 19.9033 201.188 19.67C200.792 19.4367 200.593 19.0867 200.593 18.62V4.2H192.193V18.69C192.193 19.1567 191.995 19.5067 191.598 19.74C191.202 19.9733 190.793 19.9733 190.373 19.74L177.913 12.53L173.713 19.74L186.243 26.95C186.663 27.1833 186.873 27.545 186.873 28.035C186.873 28.525 186.663 28.8867 186.243 29.12L173.713 36.33L177.913 43.54L190.373 36.33C190.793 36.0967 191.202 36.0967 191.598 36.33C191.995 36.5633 192.193 36.9133 192.193 37.38V51.8Z" fill="white"/>
<defs>
<clipPath id="clip0_61_8">
<rect width="56" height="56" fill="white"/>
</clipPath>
</defs>
</svg>
