<svg width="233" height="68" viewBox="0 0 233 68" fill="none" xmlns="http://www.w3.org/2000/svg">
<path d="M3.51562 58V24.4844H9.72656V38.3125H26.25V24.4844H32.4609V58H26.25V43.7031H9.72656V58H3.51562ZM37.7578 50.3359C37.7578 45.4453 41.3203 43 48.4453 43C50.1172 43 51.7891 43.1562 53.4609 43.4688V41.6172C53.4609 39.4141 51.875 38.3125 48.7031 38.3125C46.0156 38.3125 43.0312 38.7031 39.75 39.4844V34.5625C43.0312 33.7812 46.0156 33.3906 48.7031 33.3906C56.0156 33.3906 59.6719 36.0938 59.6719 41.5V58H56.0625L53.8594 55.7969C51.7188 57.2656 49.3594 58 46.7812 58C40.7656 58 37.7578 55.4453 37.7578 50.3359ZM53.4609 47.6875C51.8984 47.375 50.2266 47.2188 48.4453 47.2188C45.4609 47.2188 43.9688 48.2344 43.9688 50.2656C43.9688 52.4531 45.2188 53.5469 47.7188 53.5469C49.7812 53.5469 51.6953 52.9062 53.4609 51.625V47.6875ZM71.7656 51.5781C73.3125 52.4219 74.9766 52.8438 76.7578 52.8438C80.4609 52.8438 82.3125 50.2422 82.3125 45.0391C82.3125 40.6172 80.2656 38.4062 76.1719 38.4062C74.4062 38.4062 72.9375 38.5156 71.7656 38.7344V51.5781ZM65.5547 34.3984C68.8203 33.7266 72.2734 33.3906 75.9141 33.3906C84.2734 33.3906 88.4531 37.2891 88.4531 45.0859C88.4531 53.6953 84.5625 58 76.7812 58C75.125 58 73.4531 57.6094 71.7656 56.8281V66.9062H65.5547V34.3984ZM99.375 51.5781C100.922 52.4219 102.586 52.8438 104.367 52.8438C108.07 52.8438 109.922 50.2422 109.922 45.0391C109.922 40.6172 107.875 38.4062 103.781 38.4062C102.016 38.4062 100.547 38.5156 99.375 38.7344V51.5781ZM93.1641 34.3984C96.4297 33.7266 99.8828 33.3906 103.523 33.3906C111.883 33.3906 116.062 37.2891 116.062 45.0859C116.062 53.6953 112.172 58 104.391 58C102.734 58 101.062 57.6094 99.375 56.8281V66.9062H93.1641V34.3984ZM126.984 24.4844V29.4062H120.773V24.4844H126.984ZM126.984 33.3906V58H120.773V33.3906H126.984ZM132.867 58V33.3906H137.672L138.445 37C140.805 34.5938 143.492 33.3906 146.508 33.3906C152.336 33.3906 155.25 36.4219 155.25 42.4844V58H149.039V42.4844C149.039 39.7656 147.688 38.4062 144.984 38.4062C142.969 38.4062 141 39.2109 139.078 40.8203V58H132.867ZM171.516 33.3906C178.984 33.3906 182.719 37.2031 182.719 44.8281C182.719 45.8438 182.648 46.8594 182.508 47.875H166.172C166.172 51.3438 168.719 53.0781 173.812 53.0781C176.297 53.0781 178.781 52.8438 181.266 52.375V57.2969C179.094 57.7656 176.453 58 173.344 58C164.422 58 159.961 53.8047 159.961 45.4141C159.961 37.3984 163.812 33.3906 171.516 33.3906ZM166.172 43.5625H176.672V43.375C176.672 39.9688 174.953 38.2656 171.516 38.2656C168.234 38.2656 166.453 40.0312 166.172 43.5625ZM187.383 56.8281V51.6719C190.117 52.7656 193.273 53.3125 196.852 53.3125C199.523 53.3125 200.859 52.4531 200.859 50.7344C200.859 49.0938 199.961 48.2734 198.164 48.2734H193.711C188.711 48.2734 186.211 45.8125 186.211 40.8906C186.211 35.7344 189.859 33.1562 197.156 33.1562C200.25 33.1562 203.164 33.625 205.898 34.5625V39.7188C203.164 38.625 200.195 38.0781 196.992 38.0781C193.633 38.0781 191.953 38.9375 191.953 40.6562C191.953 42.2969 192.93 43.1172 194.883 43.1172H198.867C204.336 43.1172 207.07 45.5781 207.07 50.5C207.07 55.6562 203.586 58.2344 196.617 58.2344C193.195 58.2344 190.117 57.7656 187.383 56.8281ZM211.43 56.8281V51.6719C214.164 52.7656 217.32 53.3125 220.898 53.3125C223.57 53.3125 224.906 52.4531 224.906 50.7344C224.906 49.0938 224.008 48.2734 222.211 48.2734H217.758C212.758 48.2734 210.258 45.8125 210.258 40.8906C210.258 35.7344 213.906 33.1562 221.203 33.1562C224.297 33.1562 227.211 33.625 229.945 34.5625V39.7188C227.211 38.625 224.242 38.0781 221.039 38.0781C217.68 38.0781 216 38.9375 216 40.6562C216 42.2969 216.977 43.1172 218.93 43.1172H222.914C228.383 43.1172 231.117 45.5781 231.117 50.5C231.117 55.6562 227.633 58.2344 220.664 58.2344C217.242 58.2344 214.164 57.7656 211.43 56.8281Z" fill="white"/>
<path d="M187.016 21.6484C186 21.8828 184.906 22 183.734 22C179.359 22 177.172 19.8711 177.172 15.6133C177.172 11.668 179.359 9.69531 183.734 9.69531C184.906 9.69531 186 9.8125 187.016 10.0469V11.8047C186 11.5703 184.867 11.4531 183.617 11.4531C180.766 11.4531 179.34 12.8398 179.34 15.6133C179.34 18.6992 180.766 20.2422 183.617 20.2422C184.867 20.2422 186 20.125 187.016 19.8906V21.6484ZM192.066 5.24219V22H189.898V5.24219H192.066ZM198.113 9.69531V22H195.945V9.69531H198.113ZM198.113 5.24219V7.29297H195.945V5.24219H198.113ZM201.875 22V9.69531H203.34L203.727 11.2656C204.984 10.2188 206.367 9.69531 207.875 9.69531C210.945 9.69531 212.48 11.2227 212.48 14.2773V22H210.312V14.2422C210.312 12.4141 209.402 11.5 207.582 11.5C206.34 11.5 205.16 12.0195 204.043 13.0586V22H201.875ZM218.41 9.69531V22H216.242V9.69531H218.41ZM218.41 5.24219V7.29297H216.242V5.24219H218.41ZM231.43 21.6484C230.414 21.8828 229.32 22 228.148 22C223.773 22 221.586 19.8711 221.586 15.6133C221.586 11.668 223.773 9.69531 228.148 9.69531C229.32 9.69531 230.414 9.8125 231.43 10.0469V11.8047C230.414 11.5703 229.281 11.4531 228.031 11.4531C225.18 11.4531 223.754 12.8398 223.754 15.6133C223.754 18.6992 225.18 20.2422 228.031 20.2422C229.281 20.2422 230.414 20.125 231.43 19.8906V21.6484Z" fill="white"/>
</svg>
