<svg width="1920" height="710" viewBox="0 0 1920 710" fill="none" xmlns="http://www.w3.org/2000/svg">
<g clip-path="url(#clip0_30_2)">
<path d="M-136.736 272H-139.736V275H-136.736V272ZM-136.736 62.5273V59.5273H-139.736V62.5273H-136.736ZM-97.918 62.5273H-94.918V59.5273H-97.918V62.5273ZM-97.918 148.953H-100.918V151.953H-97.918V148.953ZM5.35352 148.953V151.953H8.35352V148.953H5.35352ZM5.35352 62.5273V59.5273H2.35352V62.5273H5.35352ZM44.1719 62.5273H47.1719V59.5273H44.1719V62.5273ZM44.1719 272V275H47.1719V272H44.1719ZM5.35352 272H2.35352V275H5.35352V272ZM5.35352 182.645H8.35352V179.645H5.35352V182.645ZM-97.918 182.645V179.645H-100.918V182.645H-97.918ZM-97.918 272V275H-94.918V272H-97.918ZM-133.736 272V62.5273H-139.736V272H-133.736ZM-136.736 65.5273H-97.918V59.5273H-136.736V65.5273ZM-100.918 62.5273V148.953H-94.918V62.5273H-100.918ZM-97.918 151.953H5.35352V145.953H-97.918V151.953ZM8.35352 148.953V62.5273H2.35352V148.953H8.35352ZM5.35352 65.5273H44.1719V59.5273H5.35352V65.5273ZM41.1719 62.5273V272H47.1719V62.5273H41.1719ZM44.1719 269H5.35352V275H44.1719V269ZM8.35352 272V182.645H2.35352V272H8.35352ZM5.35352 179.645H-97.918V185.645H5.35352V179.645ZM-100.918 182.645V272H-94.918V182.645H-100.918ZM-97.918 269H-136.736V275H-97.918V269ZM175.422 181.18L174.871 184.129L178.422 184.792V181.18H175.422ZM89.7285 156.277H86.7285V160.075L90.4234 159.196L89.7285 156.277ZM89.7285 125.516L89.0337 122.597L86.7285 123.146V125.516H89.7285ZM214.24 272V275H217.24V272H214.24ZM191.682 272L189.56 274.121L190.439 275H191.682V272ZM177.912 258.23L180.033 256.109L178.271 254.346L176.215 255.757L177.912 258.23ZM175.422 207.547H178.422V205.087L176.01 204.605L175.422 207.547ZM175.422 232.156L177.184 234.584L178.422 233.686V232.156H175.422ZM80.2773 224.1C80.2773 209.653 85.4742 199.187 95.6743 192.186C106.078 185.045 122.059 181.25 144.074 181.25V175.25C121.559 175.25 104.141 179.097 92.2788 187.239C80.2133 195.521 74.2773 207.979 74.2773 224.1H80.2773ZM144.074 181.25C154.335 181.25 164.6 182.209 174.871 184.129L175.973 178.231C165.345 176.244 154.712 175.25 144.074 175.25V181.25ZM178.422 181.18V169.607H172.422V181.18H178.422ZM178.422 169.607C178.422 161.9 175.586 155.741 169.699 151.653C164.011 147.702 155.852 145.953 145.686 145.953V151.953C155.343 151.953 162.053 153.647 166.276 156.581C170.302 159.377 172.422 163.545 172.422 169.607H178.422ZM145.686 145.953C128.604 145.953 109.714 148.435 89.0337 153.359L90.4234 159.196C110.759 154.354 129.173 151.953 145.686 151.953V145.953ZM92.7285 156.277V125.516H86.7285V156.277H92.7285ZM90.4234 128.434C110.759 123.592 129.173 121.191 145.686 121.191V115.191C128.604 115.191 109.714 117.673 89.0337 122.597L90.4234 128.434ZM145.686 121.191C168.255 121.191 184.638 125.379 195.318 133.275C205.829 141.045 211.24 152.729 211.24 168.875H217.24C217.24 151.232 211.226 137.574 198.885 128.45C186.714 119.452 168.819 115.191 145.686 115.191V121.191ZM211.24 168.875V272H217.24V168.875H211.24ZM214.24 269H191.682V275H214.24V269ZM193.803 269.879L180.033 256.109L175.791 260.352L189.56 274.121L193.803 269.879ZM176.215 255.757C163.332 264.596 149.177 269 133.674 269V275C150.398 275 165.735 270.224 179.609 260.704L176.215 255.757ZM133.674 269C115.229 269 101.954 265.073 93.3185 257.738C84.7767 250.483 80.2773 239.464 80.2773 224.1H74.2773C74.2773 240.669 79.1774 253.6 89.4344 262.311C99.5976 270.944 114.521 275 133.674 275V269ZM176.01 204.605C166.03 202.609 155.382 201.617 144.074 201.617V207.617C155.032 207.617 165.283 208.578 174.834 210.489L176.01 204.605ZM144.074 201.617C134.501 201.617 126.793 203.229 121.402 206.898C115.805 210.707 113.096 216.465 113.096 223.66H119.096C119.096 218.16 121.049 214.396 124.778 211.858C128.714 209.179 134.995 207.617 144.074 207.617V201.617ZM113.096 223.66C113.096 231.07 115.231 237.144 119.98 241.299C124.651 245.386 131.349 247.168 139.533 247.168V241.168C132.092 241.168 127.071 239.532 123.931 236.783C120.866 234.102 119.096 229.922 119.096 223.66H113.096ZM139.533 247.168C153.095 247.168 165.668 242.941 177.184 234.584L173.66 229.728C163.106 237.387 151.753 241.168 139.533 241.168V247.168ZM178.422 232.156V207.547H172.422V232.156H178.422ZM289.826 231.863H286.826V233.644L288.39 234.497L289.826 231.863ZM289.826 151.59L289.276 148.641L286.826 149.098V151.59H289.826ZM251.008 124.49L250.403 121.552L248.008 122.045V124.49H251.008ZM289.826 264.676L291.087 261.953L286.826 259.981V264.676H289.826ZM289.826 327.664V330.664H292.826V327.664H289.826ZM251.008 327.664H248.008V330.664H251.008V327.664ZM288.39 234.497C298.503 240.013 309.398 242.773 321.027 242.773V236.773C310.391 236.773 300.485 234.26 291.263 229.23L288.39 234.497ZM321.027 242.773C333.392 242.773 343.064 238.373 349.509 229.318C355.82 220.451 358.744 207.519 358.744 190.994H352.744C352.744 206.989 349.882 218.447 344.621 225.839C339.493 233.044 331.807 236.773 321.027 236.773V242.773ZM358.744 190.994C358.744 176.768 355.456 165.54 348.351 157.865C341.205 150.146 330.683 146.539 317.365 146.539V152.539C329.634 152.539 338.301 155.841 343.948 161.941C349.635 168.084 352.744 177.583 352.744 190.994H358.744ZM317.365 146.539C306.224 146.539 296.845 147.228 289.276 148.641L290.377 154.539C297.455 153.218 306.436 152.539 317.365 152.539V146.539ZM286.826 151.59V231.863H292.826V151.59H286.826ZM251.612 127.429C271.806 123.274 293.185 121.191 315.754 121.191V115.191C292.815 115.191 271.03 117.308 250.403 121.552L251.612 127.429ZM315.754 121.191C341.464 121.191 360.189 127.191 372.485 138.659C384.741 150.091 391.123 167.44 391.123 191.287H397.123C397.123 166.404 390.444 147.205 376.577 134.271C362.75 121.375 342.289 115.191 315.754 115.191V121.191ZM391.123 191.287C391.123 217.8 385.126 237.124 373.66 249.81C362.246 262.439 344.945 269 321.174 269V275C346.035 275 365.209 268.109 378.111 253.833C390.962 239.615 397.123 218.583 397.123 191.287H391.123ZM321.174 269C311.308 269 301.287 266.676 291.087 261.953L288.566 267.398C299.459 272.441 310.336 275 321.174 275V269ZM286.826 264.676V327.664H292.826V264.676H286.826ZM289.826 324.664H251.008V330.664H289.826V324.664ZM254.008 327.664V124.49H248.008V327.664H254.008ZM462.385 231.863H459.385V233.644L460.948 234.497L462.385 231.863ZM462.385 151.59L461.834 148.641L459.385 149.098V151.59H462.385ZM423.566 124.49L422.962 121.552L420.566 122.045V124.49H423.566ZM462.385 264.676L463.645 261.953L459.385 259.981V264.676H462.385ZM462.385 327.664V330.664H465.385V327.664H462.385ZM423.566 327.664H420.566V330.664H423.566V327.664ZM460.948 234.497C471.062 240.013 481.957 242.773 493.586 242.773V236.773C482.949 236.773 473.044 234.26 463.821 229.23L460.948 234.497ZM493.586 242.773C505.951 242.773 515.623 238.373 522.068 229.318C528.379 220.451 531.303 207.519 531.303 190.994H525.303C525.303 206.989 522.44 218.447 517.179 225.839C512.052 233.044 504.365 236.773 493.586 236.773V242.773ZM531.303 190.994C531.303 176.768 528.015 165.54 520.909 157.865C513.763 150.146 503.241 146.539 489.924 146.539V152.539C502.192 152.539 510.86 155.841 516.507 161.941C522.194 168.084 525.303 177.583 525.303 190.994H531.303ZM489.924 146.539C478.783 146.539 469.404 147.228 461.834 148.641L462.935 154.539C470.014 153.218 478.994 152.539 489.924 152.539V146.539ZM459.385 151.59V231.863H465.385V151.59H459.385ZM424.171 127.429C444.365 123.274 465.743 121.191 488.312 121.191V115.191C465.374 115.191 443.588 117.308 422.962 121.552L424.171 127.429ZM488.312 121.191C514.023 121.191 532.747 127.191 545.043 138.659C557.3 150.091 563.682 167.44 563.682 191.287H569.682C569.682 166.404 563.002 147.205 549.136 134.271C535.308 121.375 514.848 115.191 488.312 115.191V121.191ZM563.682 191.287C563.682 217.8 557.685 237.124 546.219 249.81C534.805 262.439 517.504 269 493.732 269V275C518.594 275 537.767 268.109 550.67 253.833C563.521 239.615 569.682 218.583 569.682 191.287H563.682ZM493.732 269C483.867 269 473.846 266.676 463.645 261.953L461.124 267.398C472.018 272.441 482.895 275 493.732 275V269ZM459.385 264.676V327.664H465.385V264.676H459.385ZM462.385 324.664H423.566V330.664H462.385V324.664ZM426.566 327.664V124.49H420.566V327.664H426.566ZM634.943 62.5273H637.943V59.5273H634.943V62.5273ZM634.943 93.2891V96.2891H637.943V93.2891H634.943ZM596.125 93.2891H593.125V96.2891H596.125V93.2891ZM596.125 62.5273V59.5273H593.125V62.5273H596.125ZM634.943 118.191H637.943V115.191H634.943V118.191ZM634.943 272V275H637.943V272H634.943ZM596.125 272H593.125V275H596.125V272ZM596.125 118.191V115.191H593.125V118.191H596.125ZM631.943 62.5273V93.2891H637.943V62.5273H631.943ZM634.943 90.2891H596.125V96.2891H634.943V90.2891ZM599.125 93.2891V62.5273H593.125V93.2891H599.125ZM596.125 65.5273H634.943V59.5273H596.125V65.5273ZM631.943 118.191V272H637.943V118.191H631.943ZM634.943 269H596.125V275H634.943V269ZM599.125 272V118.191H593.125V272H599.125ZM596.125 121.191H634.943V115.191H596.125V121.191ZM671.711 272H668.711V275H671.711V272ZM671.711 118.191V115.191H668.711V118.191H671.711ZM701.74 118.191L704.674 117.563L704.165 115.191H701.74V118.191ZM706.574 140.75L703.641 141.379L704.81 146.834L708.716 142.85L706.574 140.75ZM811.604 272V275H814.604V272H811.604ZM772.785 272H769.785V275H772.785V272ZM710.529 164.627L708.603 162.327L707.529 163.226V164.627H710.529ZM710.529 272V275H713.529V272H710.529ZM674.711 272V118.191H668.711V272H674.711ZM671.711 121.191H701.74V115.191H671.711V121.191ZM698.807 118.82L703.641 141.379L709.508 140.121L704.674 117.563L698.807 118.82ZM708.716 142.85C722.971 128.313 739.021 121.191 756.965 121.191V115.191C737.213 115.191 719.67 123.109 704.432 138.65L708.716 142.85ZM756.965 121.191C774.685 121.191 787.431 125.793 795.781 134.479C804.153 143.188 808.604 156.516 808.604 175.027H814.604C814.604 155.649 809.948 140.558 800.107 130.321C790.244 120.062 775.671 115.191 756.965 115.191V121.191ZM808.604 175.027V272H814.604V175.027H808.604ZM811.604 269H772.785V275H811.604V269ZM775.785 272V175.027H769.785V272H775.785ZM775.785 175.027C775.785 166.073 773.558 158.806 768.577 153.796C763.593 148.783 756.357 146.539 747.443 146.539V152.539C755.424 152.539 760.859 154.543 764.322 158.026C767.789 161.513 769.785 166.989 769.785 175.027H775.785ZM747.443 146.539C733.983 146.539 721.019 151.93 708.603 162.327L712.455 166.927C724.063 157.207 735.709 152.539 747.443 152.539V146.539ZM707.529 164.627V272H713.529V164.627H707.529ZM710.529 269H671.711V275H710.529V269ZM981.965 208.719V211.719H984.578L984.937 209.13L981.965 208.719ZM879.865 208.719V205.719H876.865V208.719H879.865ZM974.201 236.844H977.201V233.225L973.645 233.896L974.201 236.844ZM974.201 267.605L974.834 270.538L977.201 270.027V267.605H974.201ZM879.865 181.766L876.875 181.527L876.617 184.766H879.865V181.766ZM945.49 181.766V184.766H948.49V181.766H945.49ZM913.264 121.191C936.125 121.191 952.724 127.022 963.635 138.162C974.558 149.313 980.283 166.295 980.283 189.676H986.283C986.283 165.401 980.339 146.64 967.922 133.963C955.493 121.275 937.082 115.191 913.264 115.191V121.191ZM980.283 189.676C980.283 195.884 979.853 202.095 978.993 208.307L984.937 209.13C985.834 202.648 986.283 196.162 986.283 189.676H980.283ZM981.965 205.719H879.865V211.719H981.965V205.719ZM876.865 208.719C876.865 220.406 881.222 229.532 890.115 235.588C898.802 241.503 911.454 244.238 927.619 244.238V238.238C911.948 238.238 900.724 235.553 893.492 230.629C886.467 225.845 882.865 218.712 882.865 208.719H876.865ZM927.619 244.238C943.336 244.238 959.05 242.755 974.757 239.792L973.645 233.896C958.298 236.791 942.957 238.238 927.619 238.238V244.238ZM971.201 236.844V267.605H977.201V236.844H971.201ZM973.568 264.673C960.266 267.544 943.988 269 924.689 269V275C944.258 275 960.988 273.526 974.834 270.538L973.568 264.673ZM924.689 269C897.227 269 877.188 262.54 864.013 250.149C850.872 237.791 844.047 219.047 844.047 193.338H838.047C838.047 220.07 845.162 240.657 859.902 254.52C874.608 268.35 896.391 275 924.689 275V269ZM844.047 193.338C844.047 168.722 849.963 150.817 861.264 139.057C872.544 127.319 889.685 121.191 913.264 121.191V115.191C888.698 115.191 869.73 121.588 856.938 134.899C844.167 148.188 838.047 167.856 838.047 193.338H844.047ZM879.865 184.766H945.49V178.766H879.865V184.766ZM948.49 181.766V180.594H942.49V181.766H948.49ZM948.49 180.594C948.49 169.48 945.683 160.595 939.545 154.513C933.412 148.435 924.461 145.66 913.264 145.66V151.66C923.55 151.66 930.713 154.207 935.322 158.775C939.926 163.337 942.49 170.419 942.49 180.594H948.49ZM913.264 145.66C902.472 145.66 893.707 148.575 887.421 154.806C881.17 161.003 877.787 170.069 876.875 181.527L882.856 182.004C883.701 171.392 886.764 163.906 891.645 159.067C896.492 154.262 903.547 151.66 913.264 151.66V145.66ZM1012.43 264.676H1009.43V266.819L1011.46 267.514L1012.43 264.676ZM1012.43 232.449L1013.55 229.664L1009.43 228.018V232.449H1012.43ZM1128.16 125.516H1131.16V123.373L1129.13 122.678L1128.16 125.516ZM1128.16 157.742L1127.04 160.528L1131.16 162.173V157.742H1128.16ZM1015.43 264.676V232.449H1009.43V264.676H1015.43ZM1011.32 235.235C1028.83 242.239 1048.95 245.703 1071.61 245.703V239.703C1049.55 239.703 1030.22 236.331 1013.55 229.664L1011.32 235.235ZM1071.61 245.703C1080.19 245.703 1087.14 244.342 1092.02 241.198C1097.14 237.908 1099.66 232.882 1099.66 226.59H1093.66C1093.66 231.04 1092.01 234.07 1088.78 236.152C1085.31 238.379 1079.74 239.703 1071.61 239.703V245.703ZM1099.66 226.59C1099.66 220.927 1098.1 216.149 1094.47 212.839C1090.9 209.576 1085.83 208.209 1079.82 208.209V214.209C1085.03 214.209 1088.39 215.406 1090.43 217.27C1092.42 219.086 1093.66 221.999 1093.66 226.59H1099.66ZM1079.82 208.209H1051.98V214.209H1079.82V208.209ZM1051.98 208.209C1036.81 208.209 1025.98 204.475 1018.93 197.535C1011.89 190.604 1008.11 179.973 1008.11 165.066H1002.11C1002.11 180.922 1006.14 193.362 1014.72 201.811C1023.3 210.252 1035.91 214.209 1051.98 214.209V208.209ZM1008.11 165.066C1008.11 149.755 1013.47 138.663 1023.94 131.262C1034.61 123.725 1050.98 119.727 1073.52 119.727V113.727C1050.45 113.727 1032.62 117.785 1020.48 126.361C1008.15 135.073 1002.11 148.152 1002.11 165.066H1008.11ZM1073.52 119.727C1092.55 119.727 1110.43 122.609 1127.18 128.353L1129.13 122.678C1111.7 116.704 1093.16 113.727 1073.52 113.727V119.727ZM1125.16 125.516V157.742H1131.16V125.516H1125.16ZM1129.27 154.957C1111.8 147.967 1092.86 144.488 1072.49 144.488V150.488C1092.16 150.488 1110.34 153.845 1127.04 160.528L1129.27 154.957ZM1072.49 144.488C1061.84 144.488 1053.39 145.835 1047.51 148.846C1044.52 150.373 1042.11 152.373 1040.45 154.914C1038.79 157.472 1038 160.405 1038 163.602H1044C1044 161.427 1044.52 159.661 1045.48 158.19C1046.45 156.703 1047.97 155.345 1050.24 154.187C1054.85 151.827 1062.15 150.488 1072.49 150.488V144.488ZM1038 163.602C1038 169.342 1039.73 174.146 1043.65 177.434C1047.46 180.639 1052.86 181.982 1059.31 181.982V175.982C1053.55 175.982 1049.79 174.763 1047.51 172.84C1045.32 171.002 1044 168.116 1044 163.602H1038ZM1059.31 181.982H1084.21V175.982H1059.31V181.982ZM1084.21 181.982C1100.91 181.982 1112.88 185.747 1120.66 192.748C1128.38 199.695 1132.48 210.293 1132.48 225.125H1138.48C1138.48 209.195 1134.04 196.722 1124.67 188.288C1115.36 179.908 1101.69 175.982 1084.21 175.982V181.982ZM1132.48 225.125C1132.48 240.491 1127.34 251.588 1117.36 258.968C1107.22 266.473 1091.64 270.465 1070.15 270.465V276.465C1092.21 276.465 1109.3 272.4 1120.93 263.792C1132.74 255.058 1138.48 241.986 1138.48 225.125H1132.48ZM1070.15 270.465C1049.03 270.465 1030.13 267.572 1013.41 261.838L1011.46 267.514C1028.92 273.498 1048.49 276.465 1070.15 276.465V270.465ZM1162.73 264.676H1159.73V266.819L1161.75 267.514L1162.73 264.676ZM1162.73 232.449L1163.84 229.664L1159.73 228.018V232.449H1162.73ZM1278.45 125.516H1281.45V123.373L1279.42 122.678L1278.45 125.516ZM1278.45 157.742L1277.34 160.528L1281.45 162.173V157.742H1278.45ZM1165.73 264.676V232.449H1159.73V264.676H1165.73ZM1161.61 235.235C1179.12 242.239 1199.24 245.703 1221.91 245.703V239.703C1199.84 239.703 1180.51 236.331 1163.84 229.664L1161.61 235.235ZM1221.91 245.703C1230.48 245.703 1237.43 244.342 1242.32 241.198C1247.43 237.908 1249.96 232.882 1249.96 226.59H1243.96C1243.96 231.04 1242.31 234.07 1239.07 236.152C1235.61 238.379 1230.03 239.703 1221.91 239.703V245.703ZM1249.96 226.59C1249.96 220.927 1248.39 216.149 1244.77 212.839C1241.19 209.576 1236.12 208.209 1230.11 208.209V214.209C1235.33 214.209 1238.68 215.406 1240.72 217.27C1242.71 219.086 1243.96 221.999 1243.96 226.59H1249.96ZM1230.11 208.209H1202.28V214.209H1230.11V208.209ZM1202.28 208.209C1187.1 208.209 1176.28 204.475 1169.23 197.535C1162.18 190.604 1158.4 179.973 1158.4 165.066H1152.4C1152.4 180.922 1156.43 193.362 1165.02 201.811C1173.59 210.252 1186.2 214.209 1202.28 214.209V208.209ZM1158.4 165.066C1158.4 149.755 1163.76 138.663 1174.24 131.262C1184.9 123.725 1201.27 119.727 1223.81 119.727V113.727C1200.75 113.727 1182.91 117.785 1170.77 126.361C1158.44 135.073 1152.4 148.152 1152.4 165.066H1158.4ZM1223.81 119.727C1242.84 119.727 1260.72 122.609 1277.48 128.353L1279.42 122.678C1262 116.704 1243.45 113.727 1223.81 113.727V119.727ZM1275.45 125.516V157.742H1281.45V125.516H1275.45ZM1279.56 154.957C1262.09 147.967 1243.15 144.488 1222.79 144.488V150.488C1242.46 150.488 1260.63 153.845 1277.34 160.528L1279.56 154.957ZM1222.79 144.488C1212.13 144.488 1203.68 145.835 1197.8 148.846C1194.81 150.373 1192.4 152.373 1190.75 154.914C1189.08 157.472 1188.29 160.405 1188.29 163.602H1194.29C1194.29 161.427 1194.81 159.661 1195.77 158.19C1196.74 156.703 1198.27 155.345 1200.53 154.187C1205.14 151.827 1212.45 150.488 1222.79 150.488V144.488ZM1188.29 163.602C1188.29 169.342 1190.02 174.146 1193.94 177.434C1197.75 180.639 1203.15 181.982 1209.6 181.982V175.982C1203.85 175.982 1200.09 174.763 1197.8 172.84C1195.61 171.002 1194.29 168.116 1194.29 163.602H1188.29ZM1209.6 181.982H1234.5V175.982H1209.6V181.982ZM1234.5 181.982C1251.2 181.982 1263.17 185.747 1270.95 192.748C1278.67 199.695 1282.77 210.293 1282.77 225.125H1288.77C1288.77 209.195 1284.33 196.722 1274.96 188.288C1265.65 179.908 1251.98 175.982 1234.5 175.982V181.982ZM1282.77 225.125C1282.77 240.491 1277.63 251.588 1267.66 258.968C1257.51 266.473 1241.94 270.465 1220.44 270.465V276.465C1242.5 276.465 1259.59 272.4 1271.22 263.792C1283.03 255.058 1288.77 241.986 1288.77 225.125H1282.77ZM1220.44 270.465C1199.33 270.465 1180.42 267.572 1163.7 261.838L1161.75 267.514C1179.21 273.498 1198.78 276.465 1220.44 276.465V270.465Z" fill="white"/>
<path d="M820.264 646V436.527H859.082V522.953H962.354V436.527H1001.17V646H962.354V556.645H859.082V646H820.264ZM1034.28 598.1C1034.28 567.533 1056.54 552.25 1101.07 552.25C1111.52 552.25 1121.97 553.227 1132.42 555.18V543.607C1132.42 529.838 1122.51 522.953 1102.69 522.953C1085.89 522.953 1067.24 525.395 1046.73 530.277V499.516C1067.24 494.633 1085.89 492.191 1102.69 492.191C1148.39 492.191 1171.24 509.086 1171.24 542.875V646H1148.68L1134.91 632.23C1121.53 641.41 1106.79 646 1090.67 646C1053.08 646 1034.28 630.033 1034.28 598.1ZM1132.42 581.547C1122.66 579.594 1112.21 578.617 1101.07 578.617C1082.42 578.617 1073.1 584.965 1073.1 597.66C1073.1 611.332 1080.91 618.168 1096.53 618.168C1109.42 618.168 1121.39 614.164 1132.42 606.156V581.547ZM1246.83 605.863C1256.49 611.137 1266.89 613.773 1278.03 613.773C1301.17 613.773 1312.74 597.514 1312.74 564.994C1312.74 537.357 1299.95 523.539 1274.37 523.539C1263.33 523.539 1254.15 524.223 1246.83 525.59V605.863ZM1208.01 498.49C1228.42 494.291 1250 492.191 1272.75 492.191C1325 492.191 1351.12 516.557 1351.12 565.287C1351.12 619.096 1326.81 646 1278.17 646C1267.82 646 1257.37 643.559 1246.83 638.676V701.664H1208.01V498.49ZM1419.38 605.863C1429.05 611.137 1439.45 613.773 1450.59 613.773C1473.73 613.773 1485.3 597.514 1485.3 564.994C1485.3 537.357 1472.51 523.539 1446.92 523.539C1435.89 523.539 1426.71 524.223 1419.38 525.59V605.863ZM1380.57 498.49C1400.98 494.291 1422.56 492.191 1445.31 492.191C1497.56 492.191 1523.68 516.557 1523.68 565.287C1523.68 619.096 1499.37 646 1450.73 646C1440.38 646 1429.93 643.559 1419.38 638.676V701.664H1380.57V498.49ZM1591.94 436.527V467.289H1553.12V436.527H1591.94ZM1591.94 492.191V646H1553.12V492.191H1591.94ZM1628.71 646V492.191H1658.74L1663.57 514.75C1678.32 499.711 1695.12 492.191 1713.96 492.191C1750.39 492.191 1768.6 511.137 1768.6 549.027V646H1729.79V549.027C1729.79 532.035 1721.34 523.539 1704.44 523.539C1691.85 523.539 1679.54 528.568 1667.53 538.627V646H1628.71ZM1870.26 492.191C1916.94 492.191 1940.28 516.02 1940.28 563.676C1940.28 570.023 1939.84 576.371 1938.96 582.719H1836.87C1836.87 604.398 1852.78 615.238 1884.62 615.238C1900.15 615.238 1915.67 613.773 1931.2 610.844V641.605C1917.63 644.535 1901.12 646 1881.69 646C1825.93 646 1798.05 619.779 1798.05 567.338C1798.05 517.24 1822.12 492.191 1870.26 492.191ZM1836.87 555.766H1902.49V554.594C1902.49 533.305 1891.75 522.66 1870.26 522.66C1849.76 522.66 1838.62 533.695 1836.87 555.766ZM1969.43 638.676V606.449C1986.52 613.285 2006.25 616.703 2028.61 616.703C2045.31 616.703 2053.66 611.332 2053.66 600.59C2053.66 590.336 2048.05 585.209 2036.82 585.209H2008.98C1977.73 585.209 1962.11 569.828 1962.11 539.066C1962.11 506.84 1984.91 490.727 2030.52 490.727C2049.85 490.727 2068.07 493.656 2085.16 499.516V531.742C2068.07 524.906 2049.51 521.488 2029.49 521.488C2008.5 521.488 1998 526.859 1998 537.602C1998 547.855 2004.1 552.982 2016.31 552.982H2041.21C2075.39 552.982 2092.48 568.363 2092.48 599.125C2092.48 631.352 2070.7 647.465 2027.15 647.465C2005.76 647.465 1986.52 644.535 1969.43 638.676ZM2119.73 638.676V606.449C2136.82 613.285 2156.54 616.703 2178.91 616.703C2195.61 616.703 2203.96 611.332 2203.96 600.59C2203.96 590.336 2198.34 585.209 2187.11 585.209H2159.28C2128.03 585.209 2112.4 569.828 2112.4 539.066C2112.4 506.84 2135.21 490.727 2180.81 490.727C2200.15 490.727 2218.36 493.656 2235.45 499.516V531.742C2218.36 524.906 2199.8 521.488 2179.79 521.488C2158.79 521.488 2148.29 526.859 2148.29 537.602C2148.29 547.855 2154.39 552.982 2166.6 552.982H2191.5C2225.68 552.982 2242.77 568.363 2242.77 599.125C2242.77 631.352 2221 647.465 2177.44 647.465C2156.05 647.465 2136.82 644.535 2119.73 638.676Z" fill="white"/>
</g>
<defs>
<clipPath id="clip0_30_2">
<rect width="1920" height="710" fill="white"/>
</clipPath>
</defs>
</svg>
