<svg width="32" height="64" viewBox="0 0 32 64" fill="none" xmlns="http://www.w3.org/2000/svg">
<path d="M16 55.44C18.08 55.44 19.84 54.72 21.28 53.28C22.72 51.84 23.44 50.08 23.44 48C23.44 45.92 22.72 44.16 21.28 42.72C19.84 41.28 18.08 40.56 16 40.56C13.92 40.56 12.16 41.28 10.72 42.72C9.28 44.16 8.56 45.92 8.56 48C8.56 50.08 9.28 51.84 10.72 53.28C12.16 54.72 13.92 55.44 16 55.44ZM16 64C13.8133 64 11.7467 63.58 9.8 62.74C7.85333 61.9 6.15333 60.7533 4.7 59.3C3.24667 57.8467 2.1 56.1467 1.26 54.2C0.42 52.2533 0 50.1867 0 48C0 45.8133 0.42 43.7467 1.26 41.8C2.1 39.8533 3.24667 38.1533 4.7 36.7C6.15333 35.2467 7.85333 34.1 9.8 33.26C11.7467 32.42 13.8133 32 16 32C18.1867 32 20.2533 32.42 22.2 33.26C24.1467 34.1 25.8467 35.2467 27.3 36.7C28.7533 38.1533 29.9 39.8533 30.74 41.8C31.58 43.7467 32 45.8133 32 48C32 50.1867 31.58 52.2533 30.74 54.2C29.9 56.1467 28.7533 57.8467 27.3 59.3C25.8467 60.7533 24.1467 61.9 22.2 62.74C20.2533 63.58 18.1867 64 16 64ZM16 61.6C19.7333 61.6 22.9333 60.2667 25.6 57.6C28.2667 54.9333 29.6 51.7333 29.6 48C29.6 44.2667 28.2667 41.0667 25.6 38.4C22.9333 35.7333 19.7333 34.4 16 34.4C12.2667 34.4 9.06667 35.7333 6.4 38.4C3.73333 41.0667 2.4 44.2667 2.4 48C2.4 51.7333 3.73333 54.9333 6.4 57.6C9.06667 60.2667 12.2667 61.6 16 61.6Z" fill="white"/>
<path d="M15.5 29C13.655 29 11.9113 28.6456 10.2688 27.9369C8.62625 27.2281 7.19188 26.2606 5.96563 25.0344C4.73938 23.8081 3.77187 22.3738 3.06312 20.7313C2.35437 19.0888 2 17.3338 2 15.4663C2 13.6213 2.35437 11.8775 3.06312 10.235C3.77187 8.5925 4.73938 7.16375 5.96563 5.94875C7.19188 4.73375 8.62625 3.77187 10.2688 3.06312C11.9113 2.35437 13.6662 2 15.5337 2C17.3787 2 19.1225 2.35437 20.765 3.06312C22.4075 3.77187 23.8363 4.73375 25.0513 5.94875C26.2663 7.16375 27.2281 8.5925 27.9369 10.235C28.6456 11.8775 29 13.6325 29 15.5C29 17.345 28.6456 19.0888 27.9369 20.7313C27.2281 22.3738 26.2663 23.8081 25.0513 25.0344C23.8363 26.2606 22.4075 27.2281 20.765 27.9369C19.1225 28.6456 17.3675 29 15.5 29ZM15.5 26.975C18.695 26.975 21.4062 25.8556 23.6337 23.6169C25.8612 21.3781 26.975 18.6725 26.975 15.5C26.975 12.305 25.8612 9.59375 23.6337 7.36625C21.4062 5.13875 18.695 4.025 15.5 4.025C12.3275 4.025 9.62188 5.13875 7.38313 7.36625C5.14438 9.59375 4.025 12.305 4.025 15.5C4.025 18.6725 5.14438 21.3781 7.38313 23.6169C9.62188 25.8556 12.3275 26.975 15.5 26.975Z" fill="white"/>
</svg>
